G04 Layer: TopLayer*
G04 EasyEDA v6.4.17, 2021-03-31T14:38:32+03:00*
G04 f909ed13756343b98f462e3577095ce5,760a9ddc15c74e7bbd11e1bda961fd7a,10*
G04 Gerber Generator version 0.2*
G04 Scale: 100 percent, Rotated: No, Reflected: No *
G04 Dimensions in inches *
G04 leading zeros omitted , absolute positions ,3 integer and 6 decimal *
%FSLAX36Y36*%
%MOIN*%

%ADD10C,0.0100*%
%ADD11C,0.0240*%
%ADD13C,0.2441*%
%ADD15C,0.0630*%
%ADD16C,0.0650*%

%LPD*%
D10*
X2863500Y1901500D02*
G01*
X2625000Y2080000D01*
X2620000Y2172100D01*
X2576400Y2215599D01*
X2925000Y2085000D02*
G01*
X2922650Y2082651D01*
X2922650Y2032649D01*
X2885000Y1995000D02*
G01*
X2907339Y2017339D01*
X3012650Y1987649D02*
G01*
X3040000Y2014998D01*
X3040000Y2040000D01*
X2965000Y1940000D02*
G01*
X2965000Y1940000D01*
X2997340Y1972339D01*
X2076400Y2215599D02*
G01*
X2076400Y2186399D01*
X2030000Y2140000D01*
X2030000Y2035000D01*
X1960000Y1965000D01*
X1210000Y1965000D01*
X1175000Y1930000D01*
X1175000Y1765000D01*
X1253500Y1686500D01*
X2173537Y1686460D02*
G01*
X2403537Y1686460D01*
X1483537Y1901460D02*
G01*
X1253537Y1901460D01*
X1776419Y2115630D02*
G01*
X1776419Y2106419D01*
X1715000Y2045000D01*
X1185000Y2045000D01*
X1085000Y1945000D01*
X1085000Y1425000D01*
X1253540Y1256460D01*
X1253537Y1256460D02*
G01*
X1483537Y1256460D01*
X1713537Y1901460D02*
G01*
X1483537Y1901460D01*
X1943537Y1901460D02*
G01*
X1713537Y1901460D01*
X2173537Y1901460D02*
G01*
X1943537Y1901460D01*
X2403537Y1901460D02*
G01*
X2173537Y1901460D01*
X2633537Y1901460D02*
G01*
X2403537Y1901460D01*
X2633537Y1686460D02*
G01*
X2863537Y1686460D01*
X2403537Y1686460D02*
G01*
X2633537Y1686460D01*
X1943537Y1686460D02*
G01*
X2173537Y1686460D01*
X1943537Y1686460D02*
G01*
X1713537Y1686460D01*
X1483537Y1686460D02*
G01*
X1713537Y1686460D01*
X1253537Y1686460D02*
G01*
X1483537Y1686460D01*
X1713537Y1471460D02*
G01*
X1483537Y1471460D01*
X1943537Y1471460D02*
G01*
X1713537Y1471460D01*
X2173537Y1471460D02*
G01*
X1943537Y1471460D01*
X2403537Y1471460D02*
G01*
X2173537Y1471460D01*
X2633537Y1471460D02*
G01*
X2403537Y1471460D01*
X2633537Y1471460D02*
G01*
X2863537Y1471460D01*
X2633537Y1256460D02*
G01*
X2863537Y1256460D01*
X2403537Y1256460D02*
G01*
X2633537Y1256460D01*
X2173537Y1256460D02*
G01*
X2403537Y1256460D01*
X1943537Y1256460D02*
G01*
X2154690Y1256460D01*
X1713537Y1256460D02*
G01*
X1943537Y1256460D01*
X1483537Y1256460D02*
G01*
X1713537Y1256460D01*
X2633537Y1041460D02*
G01*
X2863537Y1041460D01*
X2403537Y1041460D02*
G01*
X2633537Y1041460D01*
X2173537Y1041460D02*
G01*
X2403537Y1041460D01*
X1943537Y1041460D02*
G01*
X2173537Y1041460D01*
X1713537Y1041460D02*
G01*
X1974690Y1041460D01*
X1483537Y1041460D02*
G01*
X1713537Y1041460D01*
X1253537Y1041460D02*
G01*
X1483537Y1041460D01*
X1483537Y826460D02*
G01*
X1253537Y826460D01*
X1713537Y826460D02*
G01*
X1483537Y826460D01*
X1713537Y826460D02*
G01*
X1943537Y826460D01*
X2173537Y826460D02*
G01*
X1943537Y826460D01*
X2403537Y826460D02*
G01*
X2173537Y826460D01*
X2633537Y826460D02*
G01*
X2403537Y826460D01*
X2863537Y826460D02*
G01*
X2633537Y826460D01*
X2633537Y611460D02*
G01*
X2863537Y611460D01*
X2403537Y611460D02*
G01*
X2633537Y611460D01*
X2173537Y611460D02*
G01*
X2403537Y611460D01*
X1943537Y611460D02*
G01*
X2173537Y611460D01*
X1713537Y611460D02*
G01*
X1943537Y611460D01*
X1483537Y611460D02*
G01*
X1713537Y611460D01*
X1253537Y611460D02*
G01*
X1483537Y611460D01*
X2633537Y396460D02*
G01*
X2863537Y396460D01*
X2403537Y396460D02*
G01*
X2633537Y396460D01*
X2173537Y396460D02*
G01*
X2403537Y396460D01*
X1943537Y396460D02*
G01*
X2173537Y396460D01*
X1713537Y396460D02*
G01*
X1943537Y396460D01*
X1713537Y396460D02*
G01*
X1483537Y396460D01*
X1253537Y396460D02*
G01*
X1483537Y396460D01*
X1483537Y1471460D02*
G01*
X1253537Y1471460D01*
X1253540Y1471460D02*
G01*
X1253540Y1486460D01*
X1130000Y1610000D01*
X1130000Y1940000D01*
X1200000Y2010000D01*
X1750000Y2010000D01*
X1825000Y2085000D01*
X1825000Y2164209D01*
X1876419Y2215630D01*
X1253540Y1041460D02*
G01*
X1218540Y1041460D01*
X1060000Y1200000D01*
X1060000Y1960000D01*
X1165000Y2065000D01*
X1625789Y2065000D01*
X1676419Y2115630D01*
X1253540Y826460D02*
G01*
X1253540Y826460D01*
X1025000Y1055000D01*
X1025000Y1995000D01*
X1050000Y2020000D01*
X1253540Y611460D02*
G01*
X1203540Y611460D01*
X985000Y830000D01*
X985000Y1990000D01*
X1045000Y2050000D01*
X2863500Y396500D02*
G01*
X2911499Y396500D01*
X2965000Y450000D01*
X2980000Y1880000D01*
X2725000Y2095000D01*
X2725000Y2240000D01*
X2690000Y2275000D01*
X1835799Y2275000D01*
X1776400Y2215599D01*
X2863537Y1901460D02*
G01*
X2633537Y1901460D01*
G36*
X3002910Y1989045D02*
G01*
X3011261Y1997397D01*
X3022397Y1986260D01*
X3014044Y1977910D01*
G37*
G36*
X2987601Y1973735D02*
G01*
X2995952Y1982087D01*
X3007088Y1970952D01*
X2998735Y1962600D01*
G37*
G36*
X2912910Y2034045D02*
G01*
X2921261Y2042397D01*
X2932397Y2031260D01*
X2924044Y2022910D01*
G37*
G36*
X2897601Y2018735D02*
G01*
X2905952Y2027087D01*
X2917088Y2015952D01*
X2908735Y2007600D01*
G37*
D13*
G01*
X884690Y236500D03*
G01*
X3168540Y236460D03*
G01*
X884690Y2165630D03*
G01*
X3168149Y2165630D03*
G36*
X1044921Y2147125D02*
G01*
X1107914Y2147125D01*
X1107914Y2084133D01*
X1044921Y2084133D01*
G37*
D15*
G01*
X1076419Y2215630D03*
G01*
X1176419Y2115630D03*
G01*
X1176419Y2215630D03*
G01*
X1276419Y2115630D03*
G01*
X1276419Y2215630D03*
G01*
X1376419Y2115630D03*
G01*
X1376419Y2215630D03*
G01*
X1476419Y2115630D03*
G01*
X1476419Y2215630D03*
G01*
X1576419Y2115630D03*
G01*
X1576419Y2215630D03*
G01*
X1676419Y2115630D03*
G01*
X1676419Y2215630D03*
G01*
X1776419Y2115630D03*
G01*
X1776419Y2215630D03*
G01*
X1876419Y2115630D03*
G01*
X1876419Y2215630D03*
G01*
X1976419Y2115630D03*
G01*
X1976419Y2215630D03*
G01*
X2076419Y2115630D03*
G01*
X2076419Y2215630D03*
G01*
X2176419Y2115630D03*
G01*
X2176419Y2215630D03*
G01*
X2276419Y2115630D03*
G01*
X2276419Y2215630D03*
G01*
X2376419Y2115630D03*
G01*
X2376419Y2215630D03*
G01*
X2476419Y2115630D03*
G01*
X2476419Y2215630D03*
G01*
X2576419Y2115630D03*
G01*
X2576419Y2215630D03*
G01*
X2676419Y2115630D03*
G01*
X2676419Y2215630D03*
G01*
X2776419Y2115630D03*
G01*
X2776419Y2215630D03*
G01*
X2876419Y2115630D03*
G01*
X2876419Y2215630D03*
G01*
X2976419Y2115630D03*
G01*
X2976419Y2215630D03*
D16*
G01*
X1253540Y396460D03*
G01*
X1253540Y296460D03*
G01*
X1253540Y611460D03*
G01*
X1253540Y511460D03*
G01*
X1253540Y826460D03*
G01*
X1253540Y726460D03*
G01*
X1253540Y1041460D03*
G01*
X1253540Y941460D03*
G01*
X1253540Y1901460D03*
G01*
X1253540Y1801460D03*
G01*
X1253540Y1686460D03*
G01*
X1253540Y1586460D03*
G01*
X1253540Y1471460D03*
G01*
X1253540Y1371460D03*
G01*
X1253540Y1256460D03*
G01*
X1253540Y1156460D03*
G01*
X1483540Y1256460D03*
G01*
X1483540Y1156460D03*
G01*
X1483540Y1471460D03*
G01*
X1483540Y1371460D03*
G01*
X1483540Y1686460D03*
G01*
X1483540Y1586460D03*
G01*
X1483540Y1901460D03*
G01*
X1483540Y1801460D03*
G01*
X1483540Y1041460D03*
G01*
X1483540Y941460D03*
G01*
X1483540Y826460D03*
G01*
X1483540Y726460D03*
G01*
X1483540Y611460D03*
G01*
X1483540Y511460D03*
G01*
X1483540Y396460D03*
G01*
X1483540Y296460D03*
G01*
X1713540Y1256460D03*
G01*
X1713540Y1156460D03*
G01*
X1713540Y1471460D03*
G01*
X1713540Y1371460D03*
G01*
X1713540Y1686460D03*
G01*
X1713540Y1586460D03*
G01*
X1713540Y1901460D03*
G01*
X1713540Y1801460D03*
G01*
X1713540Y1041460D03*
G01*
X1713540Y941460D03*
G01*
X1713540Y826460D03*
G01*
X1713540Y726460D03*
G01*
X1713540Y611460D03*
G01*
X1713540Y511460D03*
G01*
X1713540Y396460D03*
G01*
X1713540Y296460D03*
G01*
X2403540Y396460D03*
G01*
X2403540Y296460D03*
G01*
X2403540Y611460D03*
G01*
X2403540Y511460D03*
G01*
X2403540Y826460D03*
G01*
X2403540Y726460D03*
G01*
X2403540Y1041460D03*
G01*
X2403540Y941460D03*
G01*
X2403540Y1901460D03*
G01*
X2403540Y1801460D03*
G01*
X2403540Y1686460D03*
G01*
X2403540Y1586460D03*
G01*
X2403540Y1471460D03*
G01*
X2403540Y1371460D03*
G01*
X2403540Y1256460D03*
G01*
X2403540Y1156460D03*
G01*
X2173540Y396460D03*
G01*
X2173540Y296460D03*
G01*
X2173540Y611460D03*
G01*
X2173540Y511460D03*
G01*
X2173540Y826460D03*
G01*
X2173540Y726460D03*
G01*
X2173540Y1041460D03*
G01*
X2173540Y941460D03*
G01*
X2173540Y1901460D03*
G01*
X2173540Y1801460D03*
G01*
X2173540Y1686460D03*
G01*
X2173540Y1586460D03*
G01*
X2173540Y1471460D03*
G01*
X2173540Y1371460D03*
G01*
X2173540Y1256460D03*
G01*
X2173540Y1156460D03*
G01*
X1943540Y1256460D03*
G01*
X1943540Y1156460D03*
G01*
X1943540Y1471460D03*
G01*
X1943540Y1371460D03*
G01*
X1943540Y1686460D03*
G01*
X1943540Y1586460D03*
G01*
X1943540Y1901460D03*
G01*
X1943540Y1801460D03*
G01*
X1943540Y1041460D03*
G01*
X1943540Y941460D03*
G01*
X1943540Y826460D03*
G01*
X1943540Y726460D03*
G01*
X1943540Y611460D03*
G01*
X1943540Y511460D03*
G01*
X1943540Y396460D03*
G01*
X1943540Y296460D03*
G01*
X2633540Y1256460D03*
G01*
X2633540Y1156460D03*
G01*
X2633540Y1471460D03*
G01*
X2633540Y1371460D03*
G01*
X2633540Y1686460D03*
G01*
X2633540Y1586460D03*
G01*
X2633540Y1901460D03*
G01*
X2633540Y1801460D03*
G01*
X2633540Y1041460D03*
G01*
X2633540Y941460D03*
G01*
X2633540Y826460D03*
G01*
X2633540Y726460D03*
G01*
X2633540Y611460D03*
G01*
X2633540Y511460D03*
G01*
X2633540Y396460D03*
G01*
X2633540Y296460D03*
G01*
X2863540Y1256460D03*
G01*
X2863540Y1156460D03*
G01*
X2863540Y1471460D03*
G01*
X2863540Y1371460D03*
G01*
X2863540Y1686460D03*
G01*
X2863540Y1586460D03*
G01*
X2863540Y1901460D03*
G01*
X2863540Y1801460D03*
G01*
X2863540Y1041460D03*
G01*
X2863540Y941460D03*
G01*
X2863540Y826460D03*
G01*
X2863540Y726460D03*
G01*
X2863540Y611460D03*
G01*
X2863540Y511460D03*
G01*
X2863540Y396460D03*
G01*
X2863540Y296460D03*
D11*
G01*
X1050000Y2020000D03*
G01*
X1045000Y2050000D03*
G01*
X2965000Y1940000D03*
G01*
X3040000Y2040000D03*
G01*
X2885000Y1995000D03*
G01*
X2925000Y2085000D03*
M02*
