G04 Layer: BottomLayer*
G04 EasyEDA v6.4.19.4, 2021-04-05T15:03:50+03:00*
G04 a937d30ded5e43fdb79698b31add0958,760a9ddc15c74e7bbd11e1bda961fd7a,10*
G04 Gerber Generator version 0.2*
G04 Scale: 100 percent, Rotated: No, Reflected: No *
G04 Dimensions in inches *
G04 leading zeros omitted , absolute positions ,3 integer and 6 decimal *
%FSLAX36Y36*%
%MOIN*%

%ADD10C,0.0100*%
%ADD11C,0.0240*%
%ADD13C,0.2441*%
%ADD15C,0.0630*%
%ADD16C,0.0650*%

%LPD*%
D10*
X1319690Y560815D02*
G01*
X1302896Y560815D01*
X1253540Y511460D01*
X1319690Y773315D02*
G01*
X1300396Y773315D01*
X1253540Y726460D01*
X1319690Y1000815D02*
G01*
X1312896Y1000815D01*
X1253540Y941460D01*
X1319690Y1203315D02*
G01*
X1300396Y1203315D01*
X1253540Y1156460D01*
X1319690Y1428315D02*
G01*
X1310396Y1428315D01*
X1253540Y1371460D01*
X1319690Y1633315D02*
G01*
X1300396Y1633315D01*
X1253540Y1586460D01*
X2863537Y1801460D02*
G01*
X2884728Y1801460D01*
X2939690Y1746500D01*
X2939690Y372611D01*
X2863537Y296460D01*
X1045000Y2050000D02*
G01*
X1390000Y2050000D01*
X1425000Y2085000D01*
X1425000Y2130000D01*
X1455000Y2160000D01*
X1520789Y2160000D01*
X1576419Y2215630D01*
X1050000Y2020000D02*
G01*
X1480790Y2020000D01*
X1576421Y2115630D01*
X1253537Y1801460D02*
G01*
X1274728Y1801460D01*
X1319690Y1756500D01*
X1319690Y362611D01*
X1253537Y296460D01*
X2939690Y570653D02*
G01*
X2922731Y570653D01*
X2863537Y511460D01*
X2939690Y780653D02*
G01*
X2917731Y780653D01*
X2863537Y726460D01*
X2939690Y980653D02*
G01*
X2902731Y980653D01*
X2863537Y941460D01*
X2939690Y1209542D02*
G01*
X2916624Y1209542D01*
X2863537Y1156460D01*
X2939690Y1425099D02*
G01*
X2917179Y1425099D01*
X2863537Y1371460D01*
X2939690Y1637319D02*
G01*
X2914402Y1637319D01*
X2863537Y1586460D01*
X2633537Y296460D02*
G01*
X2639651Y296460D01*
X2714690Y371500D01*
X2714690Y1720311D01*
X2633537Y1801460D01*
X2403537Y1801460D02*
G01*
X2424728Y1801460D01*
X2464690Y1761500D01*
X2464690Y357611D01*
X2403537Y296460D01*
X2173537Y296460D02*
G01*
X2194651Y296460D01*
X2244690Y346500D01*
X2244690Y1730311D01*
X2173537Y1801460D01*
X1943537Y1801460D02*
G01*
X1954728Y1801460D01*
X1999690Y1756500D01*
X1999690Y352611D01*
X1943537Y296460D01*
X1483537Y1801460D02*
G01*
X1499728Y1801460D01*
X1539690Y1761500D01*
X1539690Y352611D01*
X1483537Y296460D01*
X2464690Y1632154D02*
G01*
X2449236Y1632154D01*
X2403537Y1586460D01*
X2464690Y1424153D02*
G01*
X2456233Y1424153D01*
X2403537Y1371460D01*
X2464690Y1204153D02*
G01*
X2451233Y1204153D01*
X2403537Y1156460D01*
X2464690Y992154D02*
G01*
X2454236Y992154D01*
X2403537Y941460D01*
X2464690Y776152D02*
G01*
X2453235Y776152D01*
X2403537Y726460D01*
X2464690Y552154D02*
G01*
X2444236Y552154D01*
X2403537Y511460D01*
X2714690Y572154D02*
G01*
X2694236Y572154D01*
X2633537Y511460D01*
X2714690Y784153D02*
G01*
X2691233Y784153D01*
X2633537Y726460D01*
X2714690Y992154D02*
G01*
X2684236Y992154D01*
X2633537Y941460D01*
X2714690Y1208153D02*
G01*
X2685231Y1208153D01*
X2633537Y1156460D01*
X2714690Y1416152D02*
G01*
X2678235Y1416152D01*
X2633537Y1371460D01*
X2704690Y1636500D02*
G01*
X2683590Y1636500D01*
X2633488Y1586500D01*
X2244690Y1639153D02*
G01*
X2226233Y1639153D01*
X2173537Y1586460D01*
X2244690Y1417485D02*
G01*
X2219567Y1417485D01*
X2173537Y1371460D01*
X2244690Y1205821D02*
G01*
X2222902Y1205821D01*
X2173537Y1156460D01*
X2244690Y990821D02*
G01*
X2222902Y990821D01*
X2173537Y941460D01*
X1999690Y1645821D02*
G01*
X1974011Y1645821D01*
X1949690Y1621500D01*
X1949690Y1592611D01*
X1943537Y1586460D01*
X1999690Y1417485D02*
G01*
X1989567Y1417485D01*
X1943537Y1371460D01*
X1999690Y1202485D02*
G01*
X1989567Y1202485D01*
X1943537Y1156460D01*
X1999690Y985821D02*
G01*
X1987902Y985821D01*
X1943537Y941460D01*
X1713537Y1801460D02*
G01*
X1734728Y1801460D01*
X1774690Y1761500D01*
X1774690Y357611D01*
X1713537Y296460D01*
X1774690Y994153D02*
G01*
X1766233Y994153D01*
X1713537Y941460D01*
X1774690Y1205821D02*
G01*
X1762902Y1205821D01*
X1713537Y1156460D01*
X1774690Y1414153D02*
G01*
X1756233Y1414153D01*
X1713537Y1371460D01*
X1774690Y1637485D02*
G01*
X1764567Y1637485D01*
X1713537Y1586460D01*
X1539690Y1629153D02*
G01*
X1526233Y1629153D01*
X1483537Y1586460D01*
X1539690Y1419153D02*
G01*
X1531233Y1419153D01*
X1483537Y1371460D01*
X1539690Y1209153D02*
G01*
X1536233Y1209153D01*
X1483537Y1156460D01*
X1539690Y1012485D02*
G01*
X1539690Y997611D01*
X1483537Y941460D01*
X1539690Y577485D02*
G01*
X1539690Y567611D01*
X1483537Y511460D01*
X1774690Y570821D02*
G01*
X1772902Y570821D01*
X1713537Y511460D01*
X1774690Y792485D02*
G01*
X1774690Y787611D01*
X1713537Y726460D01*
X1943537Y726460D02*
G01*
X1943537Y728004D01*
X1999690Y784153D01*
X1943537Y511460D02*
G01*
X1943537Y518004D01*
X1999690Y574153D01*
X2173537Y511460D02*
G01*
X2186994Y511460D01*
X2244690Y569153D01*
X2173537Y726460D02*
G01*
X2193665Y726460D01*
X2244690Y777485D01*
X2863540Y1801460D02*
G01*
X2863540Y1838539D01*
X2965000Y1940000D01*
X3040000Y2040000D02*
G01*
X3040000Y2120000D01*
X2976421Y2183578D01*
X2976421Y2215630D01*
X2633540Y1801460D02*
G01*
X2691459Y1801460D01*
X2885000Y1995000D01*
X2876421Y2215630D02*
G01*
X2925000Y2167051D01*
X2925000Y2085000D01*
X2762349Y2002350D02*
G01*
X2762349Y2001549D01*
X2705801Y1945000D01*
X2580000Y1945000D01*
X2436459Y1801460D01*
X2403540Y1801460D01*
X2777659Y2017660D02*
G01*
X2778460Y2017660D01*
X2876400Y2115601D01*
X2692659Y2027660D02*
G01*
X2692659Y2031858D01*
X2776400Y2115601D01*
X2475829Y1995000D02*
G01*
X2585002Y1995000D01*
X2676400Y2086399D01*
X2676400Y2115601D01*
X2677299Y2012399D02*
G01*
X2673100Y2012399D01*
X2620799Y1960000D01*
X2355000Y1960000D01*
X2196499Y1801500D01*
X2173500Y1801500D01*
X1943500Y1801500D02*
G01*
X2136999Y1995000D01*
X2454200Y1995000D01*
X2290799Y2030000D02*
G01*
X2490799Y2030000D01*
X2576400Y2115599D01*
X2269200Y2030000D02*
G01*
X1942100Y2030000D01*
X1713500Y1801500D01*
X2476421Y2115630D02*
G01*
X2460630Y2115630D01*
X2410000Y2065000D01*
X1895000Y2065000D01*
X1860829Y2030830D01*
X1860829Y2015000D01*
X1483540Y1801460D02*
G01*
X1483540Y1808539D01*
X1690000Y2015000D01*
X1839179Y2015000D01*
X1544179Y2000000D02*
G01*
X1452002Y2000000D01*
X1253500Y1801498D01*
X2776400Y2215599D02*
G01*
X2765600Y2215599D01*
X2710000Y2160000D01*
X1755000Y2160000D01*
X1725000Y2130000D01*
X1725000Y2099400D01*
X1619700Y1994800D01*
X1560799Y1995000D01*
G36*
X2776264Y2027399D02*
G01*
X2767911Y2019047D01*
X2779047Y2007912D01*
X2787398Y2016264D01*
G37*
G36*
X2760955Y2012089D02*
G01*
X2752602Y2003739D01*
X2763738Y1992602D01*
X2772089Y2000954D01*
G37*
G36*
X2675955Y2022089D02*
G01*
X2667602Y2013739D01*
X2678738Y2002602D01*
X2687089Y2010954D01*
G37*
G36*
X2691264Y2037399D02*
G01*
X2682911Y2029047D01*
X2694047Y2017912D01*
X2702398Y2026264D01*
G37*
G36*
X2460082Y2002874D02*
G01*
X2448271Y2002874D01*
X2448271Y1987125D01*
X2460082Y1987125D01*
G37*
G36*
X2481732Y2002874D02*
G01*
X2469921Y2002874D01*
X2469921Y1987125D01*
X2481732Y1987125D01*
G37*
G36*
X2275082Y2037874D02*
G01*
X2263271Y2037874D01*
X2263271Y2022125D01*
X2275082Y2022125D01*
G37*
G36*
X2296732Y2037874D02*
G01*
X2284921Y2037874D01*
X2284921Y2022125D01*
X2296732Y2022125D01*
G37*
G36*
X1845082Y2022874D02*
G01*
X1833271Y2022874D01*
X1833271Y2007125D01*
X1845082Y2007125D01*
G37*
G36*
X1866732Y2022874D02*
G01*
X1854921Y2022874D01*
X1854921Y2007125D01*
X1866732Y2007125D01*
G37*
G36*
X1550082Y2007874D02*
G01*
X1538271Y2007874D01*
X1538271Y1992125D01*
X1550082Y1992125D01*
G37*
G36*
X1571732Y2007874D02*
G01*
X1559921Y2007874D01*
X1559921Y1992125D01*
X1571732Y1992125D01*
G37*
D13*
G01*
X884690Y236500D03*
G01*
X3168540Y236460D03*
G01*
X884690Y2165630D03*
G01*
X3168149Y2165630D03*
G36*
X1044921Y2147125D02*
G01*
X1107914Y2147125D01*
X1107914Y2084133D01*
X1044921Y2084133D01*
G37*
D15*
G01*
X1076419Y2215630D03*
G01*
X1176419Y2115630D03*
G01*
X1176419Y2215630D03*
G01*
X1276419Y2115630D03*
G01*
X1276419Y2215630D03*
G01*
X1376419Y2115630D03*
G01*
X1376419Y2215630D03*
G01*
X1476419Y2115630D03*
G01*
X1476419Y2215630D03*
G01*
X1576419Y2115630D03*
G01*
X1576419Y2215630D03*
G01*
X1676419Y2115630D03*
G01*
X1676419Y2215630D03*
G01*
X1776419Y2115630D03*
G01*
X1776419Y2215630D03*
G01*
X1876419Y2115630D03*
G01*
X1876419Y2215630D03*
G01*
X1976419Y2115630D03*
G01*
X1976419Y2215630D03*
G01*
X2076419Y2115630D03*
G01*
X2076419Y2215630D03*
G01*
X2176419Y2115630D03*
G01*
X2176419Y2215630D03*
G01*
X2276419Y2115630D03*
G01*
X2276419Y2215630D03*
G01*
X2376419Y2115630D03*
G01*
X2376419Y2215630D03*
G01*
X2476419Y2115630D03*
G01*
X2476419Y2215630D03*
G01*
X2576419Y2115630D03*
G01*
X2576419Y2215630D03*
G01*
X2676419Y2115630D03*
G01*
X2676419Y2215630D03*
G01*
X2776419Y2115630D03*
G01*
X2776419Y2215630D03*
G01*
X2876419Y2115630D03*
G01*
X2876419Y2215630D03*
G01*
X2976419Y2115630D03*
G01*
X2976419Y2215630D03*
D16*
G01*
X1253540Y396460D03*
G01*
X1253540Y296460D03*
G01*
X1253540Y611460D03*
G01*
X1253540Y511460D03*
G01*
X1253540Y826460D03*
G01*
X1253540Y726460D03*
G01*
X1253540Y1041460D03*
G01*
X1253540Y941460D03*
G01*
X1253540Y1901460D03*
G01*
X1253540Y1801460D03*
G01*
X1253540Y1686460D03*
G01*
X1253540Y1586460D03*
G01*
X1253540Y1471460D03*
G01*
X1253540Y1371460D03*
G01*
X1253540Y1256460D03*
G01*
X1253540Y1156460D03*
G01*
X1483540Y1256460D03*
G01*
X1483540Y1156460D03*
G01*
X1483540Y1471460D03*
G01*
X1483540Y1371460D03*
G01*
X1483540Y1686460D03*
G01*
X1483540Y1586460D03*
G01*
X1483540Y1901460D03*
G01*
X1483540Y1801460D03*
G01*
X1483540Y1041460D03*
G01*
X1483540Y941460D03*
G01*
X1483540Y826460D03*
G01*
X1483540Y726460D03*
G01*
X1483540Y611460D03*
G01*
X1483540Y511460D03*
G01*
X1483540Y396460D03*
G01*
X1483540Y296460D03*
G01*
X1713540Y1256460D03*
G01*
X1713540Y1156460D03*
G01*
X1713540Y1471460D03*
G01*
X1713540Y1371460D03*
G01*
X1713540Y1686460D03*
G01*
X1713540Y1586460D03*
G01*
X1713540Y1901460D03*
G01*
X1713540Y1801460D03*
G01*
X1713540Y1041460D03*
G01*
X1713540Y941460D03*
G01*
X1713540Y826460D03*
G01*
X1713540Y726460D03*
G01*
X1713540Y611460D03*
G01*
X1713540Y511460D03*
G01*
X1713540Y396460D03*
G01*
X1713540Y296460D03*
G01*
X2403540Y396460D03*
G01*
X2403540Y296460D03*
G01*
X2403540Y611460D03*
G01*
X2403540Y511460D03*
G01*
X2403540Y826460D03*
G01*
X2403540Y726460D03*
G01*
X2403540Y1041460D03*
G01*
X2403540Y941460D03*
G01*
X2403540Y1901460D03*
G01*
X2403540Y1801460D03*
G01*
X2403540Y1686460D03*
G01*
X2403540Y1586460D03*
G01*
X2403540Y1471460D03*
G01*
X2403540Y1371460D03*
G01*
X2403540Y1256460D03*
G01*
X2403540Y1156460D03*
G01*
X2173540Y396460D03*
G01*
X2173540Y296460D03*
G01*
X2173540Y611460D03*
G01*
X2173540Y511460D03*
G01*
X2173540Y826460D03*
G01*
X2173540Y726460D03*
G01*
X2173540Y1041460D03*
G01*
X2173540Y941460D03*
G01*
X2173540Y1901460D03*
G01*
X2173540Y1801460D03*
G01*
X2173540Y1686460D03*
G01*
X2173540Y1586460D03*
G01*
X2173540Y1471460D03*
G01*
X2173540Y1371460D03*
G01*
X2173540Y1256460D03*
G01*
X2173540Y1156460D03*
G01*
X1943540Y1256460D03*
G01*
X1943540Y1156460D03*
G01*
X1943540Y1471460D03*
G01*
X1943540Y1371460D03*
G01*
X1943540Y1686460D03*
G01*
X1943540Y1586460D03*
G01*
X1943540Y1901460D03*
G01*
X1943540Y1801460D03*
G01*
X1943540Y1041460D03*
G01*
X1943540Y941460D03*
G01*
X1943540Y826460D03*
G01*
X1943540Y726460D03*
G01*
X1943540Y611460D03*
G01*
X1943540Y511460D03*
G01*
X1943540Y396460D03*
G01*
X1943540Y296460D03*
G01*
X2633540Y1256460D03*
G01*
X2633540Y1156460D03*
G01*
X2633540Y1471460D03*
G01*
X2633540Y1371460D03*
G01*
X2633540Y1686460D03*
G01*
X2633540Y1586460D03*
G01*
X2633540Y1901460D03*
G01*
X2633540Y1801460D03*
G01*
X2633540Y1041460D03*
G01*
X2633540Y941460D03*
G01*
X2633540Y826460D03*
G01*
X2633540Y726460D03*
G01*
X2633540Y611460D03*
G01*
X2633540Y511460D03*
G01*
X2633540Y396460D03*
G01*
X2633540Y296460D03*
G01*
X2863540Y1256460D03*
G01*
X2863540Y1156460D03*
G01*
X2863540Y1471460D03*
G01*
X2863540Y1371460D03*
G01*
X2863540Y1686460D03*
G01*
X2863540Y1586460D03*
G01*
X2863540Y1901460D03*
G01*
X2863540Y1801460D03*
G01*
X2863540Y1041460D03*
G01*
X2863540Y941460D03*
G01*
X2863540Y826460D03*
G01*
X2863540Y726460D03*
G01*
X2863540Y611460D03*
G01*
X2863540Y511460D03*
G01*
X2863540Y396460D03*
G01*
X2863540Y296460D03*
D11*
G01*
X1050000Y2020000D03*
G01*
X1045000Y2050000D03*
G01*
X2965000Y1940000D03*
G01*
X3040000Y2040000D03*
G01*
X2885000Y1995000D03*
G01*
X2925000Y2085000D03*
M02*
