M48
INCH,LZ
;FILE_FORMAT=2:4
;TYPE=PLATED
;Layer: Drill PTH
;EasyEDA v6.4.17, 2021-03-31T14:38:32+03:00
;f909ed13756343b98f462e3577095ce5,760a9ddc15c74e7bbd11e1bda961fd7a,10
;Gerber Generator version 0.2
;Holesize 1 = 0.0120 inch
T01C0.0120
;Holesize 2 = 0.0380 inch
T02C0.0380
;Holesize 3 = 0.0390 inch
T03C0.0390
%
G05
G90
T01
X010500Y020200
X010450Y020500
X029650Y019400
X030400Y020400
X028850Y019950
X029250Y020850
T02
X012535Y003965
X012535Y002965
X012535Y006115
X012535Y005115
X012535Y008265
X012535Y007265
X012535Y010415
X012535Y009415
X012535Y019015
X012535Y018015
X012535Y016865
X012535Y015865
X012535Y014715
X012535Y013715
X012535Y012565
X012535Y011565
X014835Y012565
X014835Y011565
X014835Y014715
X014835Y013715
X014835Y016865
X014835Y015865
X014835Y019015
X014835Y018015
X014835Y010415
X014835Y009415
X014835Y008265
X014835Y007265
X014835Y006115
X014835Y005115
X014835Y003965
X014835Y002965
X017135Y012565
X017135Y011565
X017135Y014715
X017135Y013715
X017135Y016865
X017135Y015865
X017135Y019015
X017135Y018015
X017135Y010415
X017135Y009415
X017135Y008265
X017135Y007265
X017135Y006115
X017135Y005115
X017135Y003965
X017135Y002965
X024035Y003965
X024035Y002965
X024035Y006115
X024035Y005115
X024035Y008265
X024035Y007265
X024035Y010415
X024035Y009415
X024035Y019015
X024035Y018015
X024035Y016865
X024035Y015865
X024035Y014715
X024035Y013715
X024035Y012565
X024035Y011565
X021735Y003965
X021735Y002965
X021735Y006115
X021735Y005115
X021735Y008265
X021735Y007265
X021735Y010415
X021735Y009415
X021735Y019015
X021735Y018015
X021735Y016865
X021735Y015865
X021735Y014715
X021735Y013715
X021735Y012565
X021735Y011565
X019435Y012565
X019435Y011565
X019435Y014715
X019435Y013715
X019435Y016865
X019435Y015865
X019435Y019015
X019435Y018015
X019435Y010415
X019435Y009415
X019435Y008265
X019435Y007265
X019435Y006115
X019435Y005115
X019435Y003965
X019435Y002965
X026335Y012565
X026335Y011565
X026335Y014715
X026335Y013715
X026335Y016865
X026335Y015865
X026335Y019015
X026335Y018015
X026335Y010415
X026335Y009415
X026335Y008265
X026335Y007265
X026335Y006115
X026335Y005115
X026335Y003965
X026335Y002965
X028635Y012565
X028635Y011565
X028635Y014715
X028635Y013715
X028635Y016865
X028635Y015865
X028635Y019015
X028635Y018015
X028635Y010415
X028635Y009415
X028635Y008265
X028635Y007265
X028635Y006115
X028635Y005115
X028635Y003965
X028635Y002965
T03
X010764Y021156
X010764Y022156
X011764Y021156
X011764Y022156
X012764Y021156
X012764Y022156
X013764Y021156
X013764Y022156
X014764Y021156
X014764Y022156
X015764Y021156
X015764Y022156
X016764Y021156
X016764Y022156
X017764Y021156
X017764Y022156
X018764Y021156
X018764Y022156
X019764Y021156
X019764Y022156
X020764Y021156
X020764Y022156
X021764Y021156
X021764Y022156
X022764Y021156
X022764Y022156
X023764Y021156
X023764Y022156
X024764Y021156
X024764Y022156
X025764Y021156
X025764Y022156
X026764Y021156
X026764Y022156
X027764Y021156
X027764Y022156
X028764Y021156
X028764Y022156
X029764Y021156
X029764Y022156
M30
