G04 Layer: TopSolderMaskLayer*
G04 EasyEDA v6.4.17, 2021-03-31T14:38:32+03:00*
G04 f909ed13756343b98f462e3577095ce5,760a9ddc15c74e7bbd11e1bda961fd7a,10*
G04 Gerber Generator version 0.2*
G04 Scale: 100 percent, Rotated: No, Reflected: No *
G04 Dimensions in inches *
G04 leading zeros omitted , absolute positions ,3 integer and 6 decimal *
%FSLAX36Y36*%
%MOIN*%

%ADD20C,0.2521*%
%ADD22C,0.0710*%
%ADD23C,0.0730*%

%LPD*%
D20*
G01*
X884690Y236500D03*
G01*
X3168540Y236460D03*
G01*
X884690Y2165630D03*
G01*
X3168149Y2165630D03*
G36*
X1040900Y2080100D02*
G01*
X1040900Y2151100D01*
X1111899Y2151100D01*
X1111899Y2080100D01*
G37*
D22*
G01*
X1076419Y2215630D03*
G01*
X1176419Y2115630D03*
G01*
X1176419Y2215630D03*
G01*
X1276419Y2115630D03*
G01*
X1276419Y2215630D03*
G01*
X1376419Y2115630D03*
G01*
X1376419Y2215630D03*
G01*
X1476419Y2115630D03*
G01*
X1476419Y2215630D03*
G01*
X1576419Y2115630D03*
G01*
X1576419Y2215630D03*
G01*
X1676419Y2115630D03*
G01*
X1676419Y2215630D03*
G01*
X1776419Y2115630D03*
G01*
X1776419Y2215630D03*
G01*
X1876419Y2115630D03*
G01*
X1876419Y2215630D03*
G01*
X1976419Y2115630D03*
G01*
X1976419Y2215630D03*
G01*
X2076419Y2115630D03*
G01*
X2076419Y2215630D03*
G01*
X2176419Y2115630D03*
G01*
X2176419Y2215630D03*
G01*
X2276419Y2115630D03*
G01*
X2276419Y2215630D03*
G01*
X2376419Y2115630D03*
G01*
X2376419Y2215630D03*
G01*
X2476419Y2115630D03*
G01*
X2476419Y2215630D03*
G01*
X2576419Y2115630D03*
G01*
X2576419Y2215630D03*
G01*
X2676419Y2115630D03*
G01*
X2676419Y2215630D03*
G01*
X2776419Y2115630D03*
G01*
X2776419Y2215630D03*
G01*
X2876419Y2115630D03*
G01*
X2876419Y2215630D03*
G01*
X2976419Y2115630D03*
G01*
X2976419Y2215630D03*
D23*
G01*
X1253540Y396460D03*
G01*
X1253540Y296460D03*
G01*
X1253540Y611460D03*
G01*
X1253540Y511460D03*
G01*
X1253540Y826460D03*
G01*
X1253540Y726460D03*
G01*
X1253540Y1041460D03*
G01*
X1253540Y941460D03*
G01*
X1253540Y1901460D03*
G01*
X1253540Y1801460D03*
G01*
X1253540Y1686460D03*
G01*
X1253540Y1586460D03*
G01*
X1253540Y1471460D03*
G01*
X1253540Y1371460D03*
G01*
X1253540Y1256460D03*
G01*
X1253540Y1156460D03*
G01*
X1483540Y1256460D03*
G01*
X1483540Y1156460D03*
G01*
X1483540Y1471460D03*
G01*
X1483540Y1371460D03*
G01*
X1483540Y1686460D03*
G01*
X1483540Y1586460D03*
G01*
X1483540Y1901460D03*
G01*
X1483540Y1801460D03*
G01*
X1483540Y1041460D03*
G01*
X1483540Y941460D03*
G01*
X1483540Y826460D03*
G01*
X1483540Y726460D03*
G01*
X1483540Y611460D03*
G01*
X1483540Y511460D03*
G01*
X1483540Y396460D03*
G01*
X1483540Y296460D03*
G01*
X1713540Y1256460D03*
G01*
X1713540Y1156460D03*
G01*
X1713540Y1471460D03*
G01*
X1713540Y1371460D03*
G01*
X1713540Y1686460D03*
G01*
X1713540Y1586460D03*
G01*
X1713540Y1901460D03*
G01*
X1713540Y1801460D03*
G01*
X1713540Y1041460D03*
G01*
X1713540Y941460D03*
G01*
X1713540Y826460D03*
G01*
X1713540Y726460D03*
G01*
X1713540Y611460D03*
G01*
X1713540Y511460D03*
G01*
X1713540Y396460D03*
G01*
X1713540Y296460D03*
G01*
X2403540Y396460D03*
G01*
X2403540Y296460D03*
G01*
X2403540Y611460D03*
G01*
X2403540Y511460D03*
G01*
X2403540Y826460D03*
G01*
X2403540Y726460D03*
G01*
X2403540Y1041460D03*
G01*
X2403540Y941460D03*
G01*
X2403540Y1901460D03*
G01*
X2403540Y1801460D03*
G01*
X2403540Y1686460D03*
G01*
X2403540Y1586460D03*
G01*
X2403540Y1471460D03*
G01*
X2403540Y1371460D03*
G01*
X2403540Y1256460D03*
G01*
X2403540Y1156460D03*
G01*
X2173540Y396460D03*
G01*
X2173540Y296460D03*
G01*
X2173540Y611460D03*
G01*
X2173540Y511460D03*
G01*
X2173540Y826460D03*
G01*
X2173540Y726460D03*
G01*
X2173540Y1041460D03*
G01*
X2173540Y941460D03*
G01*
X2173540Y1901460D03*
G01*
X2173540Y1801460D03*
G01*
X2173540Y1686460D03*
G01*
X2173540Y1586460D03*
G01*
X2173540Y1471460D03*
G01*
X2173540Y1371460D03*
G01*
X2173540Y1256460D03*
G01*
X2173540Y1156460D03*
G01*
X1943540Y1256460D03*
G01*
X1943540Y1156460D03*
G01*
X1943540Y1471460D03*
G01*
X1943540Y1371460D03*
G01*
X1943540Y1686460D03*
G01*
X1943540Y1586460D03*
G01*
X1943540Y1901460D03*
G01*
X1943540Y1801460D03*
G01*
X1943540Y1041460D03*
G01*
X1943540Y941460D03*
G01*
X1943540Y826460D03*
G01*
X1943540Y726460D03*
G01*
X1943540Y611460D03*
G01*
X1943540Y511460D03*
G01*
X1943540Y396460D03*
G01*
X1943540Y296460D03*
G01*
X2633540Y1256460D03*
G01*
X2633540Y1156460D03*
G01*
X2633540Y1471460D03*
G01*
X2633540Y1371460D03*
G01*
X2633540Y1686460D03*
G01*
X2633540Y1586460D03*
G01*
X2633540Y1901460D03*
G01*
X2633540Y1801460D03*
G01*
X2633540Y1041460D03*
G01*
X2633540Y941460D03*
G01*
X2633540Y826460D03*
G01*
X2633540Y726460D03*
G01*
X2633540Y611460D03*
G01*
X2633540Y511460D03*
G01*
X2633540Y396460D03*
G01*
X2633540Y296460D03*
G01*
X2863540Y1256460D03*
G01*
X2863540Y1156460D03*
G01*
X2863540Y1471460D03*
G01*
X2863540Y1371460D03*
G01*
X2863540Y1686460D03*
G01*
X2863540Y1586460D03*
G01*
X2863540Y1901460D03*
G01*
X2863540Y1801460D03*
G01*
X2863540Y1041460D03*
G01*
X2863540Y941460D03*
G01*
X2863540Y826460D03*
G01*
X2863540Y726460D03*
G01*
X2863540Y611460D03*
G01*
X2863540Y511460D03*
G01*
X2863540Y396460D03*
G01*
X2863540Y296460D03*
G36*
X3013999Y1972300D02*
G01*
X2997299Y1989000D01*
X3011300Y2003099D01*
X3028100Y1986300D01*
G37*
G36*
X2998699Y1956900D02*
G01*
X2981899Y1973699D01*
X2996000Y1987699D01*
X3012700Y1970999D01*
G37*
G36*
X2923999Y2017300D02*
G01*
X2907299Y2034000D01*
X2921300Y2048099D01*
X2938100Y2031300D01*
G37*
G36*
X2908699Y2001900D02*
G01*
X2891899Y2018699D01*
X2906000Y2032699D01*
X2922700Y2015999D01*
G37*
M02*
