G04 Layer: BottomPasteMaskLayer*
G04 EasyEDA v6.4.17, 2021-03-31T14:38:32+03:00*
G04 f909ed13756343b98f462e3577095ce5,760a9ddc15c74e7bbd11e1bda961fd7a,10*
G04 Gerber Generator version 0.2*
G04 Scale: 100 percent, Rotated: No, Reflected: No *
G04 Dimensions in inches *
G04 leading zeros omitted , absolute positions ,3 integer and 6 decimal *
%FSLAX36Y36*%
%MOIN*%

%ADD10C,0.0001*%

%LPD*%
G36*
X2776264Y2027399D02*
G01*
X2767911Y2019047D01*
X2779047Y2007912D01*
X2787398Y2016264D01*
G37*
G36*
X2760955Y2012089D02*
G01*
X2752602Y2003739D01*
X2763738Y1992602D01*
X2772089Y2000954D01*
G37*
G36*
X2675955Y2022089D02*
G01*
X2667602Y2013739D01*
X2678738Y2002602D01*
X2687089Y2010954D01*
G37*
G36*
X2691264Y2037399D02*
G01*
X2682911Y2029047D01*
X2694047Y2017912D01*
X2702398Y2026264D01*
G37*
G36*
X2460082Y2002873D02*
G01*
X2448271Y2002873D01*
X2448271Y1987126D01*
X2460082Y1987126D01*
G37*
G36*
X2481732Y2002873D02*
G01*
X2469921Y2002873D01*
X2469921Y1987126D01*
X2481732Y1987126D01*
G37*
G36*
X2275082Y2037873D02*
G01*
X2263271Y2037873D01*
X2263271Y2022126D01*
X2275082Y2022126D01*
G37*
G36*
X2296732Y2037873D02*
G01*
X2284921Y2037873D01*
X2284921Y2022126D01*
X2296732Y2022126D01*
G37*
G36*
X1845082Y2022873D02*
G01*
X1833271Y2022873D01*
X1833271Y2007126D01*
X1845082Y2007126D01*
G37*
G36*
X1866732Y2022873D02*
G01*
X1854921Y2022873D01*
X1854921Y2007126D01*
X1866732Y2007126D01*
G37*
G36*
X1550082Y2007873D02*
G01*
X1538271Y2007873D01*
X1538271Y1992126D01*
X1550082Y1992126D01*
G37*
G36*
X1571732Y2007873D02*
G01*
X1559921Y2007873D01*
X1559921Y1992126D01*
X1571732Y1992126D01*
G37*
M02*
